<?xml version="1.0" encoding="UTF-8" standalone="no"?>
<!DOCTYPE svg PUBLIC "-//W3C//DTD SVG 1.1//EN"
 "http://www.w3.org/Graphics/SVG/1.1/DTD/svg11.dtd">
<!-- Generated by graphviz version 2.38.0 (20140413.2041)
 -->
<!-- Title: ARGP_FUNC Pages: 1 -->
<svg width="1071pt" height="408pt"
 viewBox="0.00 0.00 1070.98 408.00" xmlns="http://www.w3.org/2000/svg" xmlns:xlink="http://www.w3.org/1999/xlink">
<g id="graph0" class="graph" transform="scale(1 1) rotate(0) translate(4 404)">
<title>ARGP_FUNC</title>
<polygon fill="white" stroke="none" points="-4,4 -4,-404 1066.98,-404 1066.98,4 -4,4"/>
<!-- START -->
<g id="node1" class="node"><title>START</title>
<ellipse fill="lightgray" stroke="black" cx="31.8709" cy="-50" rx="31.7423" ry="18"/>
<text text-anchor="middle" x="31.8709" y="-47.2" font-family="Helvetica,sans-Serif" font-size="11.00">START</text>
</g>
<!-- NEXT -->
<g id="node2" class="node"><title>NEXT</title>
<ellipse fill="lightgray" stroke="black" cx="177.802" cy="-184" rx="27.1205" ry="18"/>
<text text-anchor="middle" x="177.802" y="-181.2" font-family="Helvetica,sans-Serif" font-size="11.00">NEXT</text>
</g>
<!-- START&#45;&gt;NEXT -->
<g id="edge1" class="edge"><title>START&#45;&gt;NEXT</title>
<path fill="none" stroke="black" d="M44.8072,-66.6362C54.1776,-79.1786 67.9119,-96.472 81.7418,-110 103.101,-130.893 130.224,-151.512 150.027,-165.657"/>
<polygon fill="black" stroke="black" points="148.107,-168.585 158.295,-171.491 152.142,-162.866 148.107,-168.585"/>
<text text-anchor="middle" x="107.242" y="-156.2" font-family="Helvetica,sans-Serif" font-size="11.00">initialize</text>
</g>
<!-- ERR_NULL_PTR -->
<g id="node4" class="node"><title>ERR_NULL_PTR</title>
<ellipse fill="hotpink" stroke="black" cx="900.421" cy="-18" rx="61.1733" ry="18"/>
<text text-anchor="middle" x="900.421" y="-15.2" font-family="Helvetica,sans-Serif" font-size="11.00">ERR_NULL_PTR</text>
</g>
<!-- START&#45;&gt;ERR_NULL_PTR -->
<g id="edge2" class="edge"><title>START&#45;&gt;ERR_NULL_PTR</title>
<path fill="none" stroke="black" d="M56.6692,-38.2501C84.6944,-25.5186 132.989,-7 176.802,-7 176.802,-7 176.802,-7 697.362,-7 741.867,-7 791.804,-9.69356 830.899,-12.4149"/>
<polygon fill="black" stroke="black" points="830.885,-15.9227 841.109,-13.1432 831.383,-8.94044 830.885,-15.9227"/>
<text text-anchor="middle" x="418.862" y="-10.2" font-family="Helvetica,sans-Serif" font-size="11.00">pointer == NULL</text>
</g>
<!-- NEXT&#45;&gt;START -->
<g id="edge3" class="edge"><title>NEXT&#45;&gt;START</title>
<path fill="none" stroke="black" d="M172.126,-166.227C166.061,-146.293 153.695,-114.126 132.742,-94 115.715,-77.6451 91.601,-66.7869 71.3341,-59.9493"/>
<polygon fill="black" stroke="black" points="72.3319,-56.594 61.7417,-56.9092 70.217,-63.2669 72.3319,-56.594"/>
<text text-anchor="middle" x="107.242" y="-97.2" font-family="Helvetica,sans-Serif" font-size="11.00">i &lt; lastOpt</text>
</g>
<!-- NEXT&#45;&gt;NEXT -->
<g id="edge5" class="edge"><title>NEXT&#45;&gt;NEXT</title>
<path fill="none" stroke="black" d="M150.802,-184C139.075,-193 115.742,-193 115.742,-184 115.742,-176.969 129.983,-175.431 141.806,-179.386"/>
<polygon fill="black" stroke="black" points="140.307,-182.55 150.802,-184 143.502,-176.322 140.307,-182.55"/>
<text text-anchor="start" x="37.2418" y="-187.2" font-family="Helvetica,sans-Serif" font-size="11.00">[^&#45;].* </text>
<text text-anchor="start" x="62.2418" y="-187.2" font-family="Helvetica,sans-Serif" font-size="11.00" fill="blue">AND</text>
<text text-anchor="start" x="6.74181" y="-176.2" font-family="Helvetica,sans-Serif" font-size="11.00">POSIXLY_CORRECT</text>
</g>
<!-- ERR_NON_OPT -->
<g id="node3" class="node"><title>ERR_NON_OPT</title>
<ellipse fill="hotpink" stroke="black" cx="900.421" cy="-303" rx="60.2679" ry="18"/>
<text text-anchor="middle" x="900.421" y="-300.2" font-family="Helvetica,sans-Serif" font-size="11.00">ERR_NON_OPT</text>
</g>
<!-- NEXT&#45;&gt;ERR_NON_OPT -->
<g id="edge9" class="edge"><title>NEXT&#45;&gt;ERR_NON_OPT</title>
<path fill="none" stroke="black" d="M185.056,-201.664C191.845,-218.327 204.271,-242.808 222.862,-257 269.496,-292.598 291.828,-284.395 349.862,-293 521.603,-318.466 726.814,-312.785 831.173,-307.367"/>
<polygon fill="black" stroke="black" points="831.459,-310.857 841.258,-306.828 831.086,-303.867 831.459,-310.857"/>
<text text-anchor="start" x="540.862" y="-337.2" font-family="Helvetica,sans-Serif" font-size="11.00">&#45;[\0&#45;] </text>
<text text-anchor="start" x="566.862" y="-337.2" font-family="Helvetica,sans-Serif" font-size="11.00" fill="blue">OR </text>
<text text-anchor="start" x="587.862" y="-337.2" font-family="Helvetica,sans-Serif" font-size="11.00">([^&#45;].*</text>
<text text-anchor="start" x="534.862" y="-326.2" font-family="Helvetica,sans-Serif" font-size="11.00" fill="blue">AND </text>
<text text-anchor="start" x="560.862" y="-326.2" font-family="Helvetica,sans-Serif" font-size="11.00">!ARG_ONE</text>
<text text-anchor="start" x="505.862" y="-315.2" font-family="Helvetica,sans-Serif" font-size="11.00" fill="blue">AND </text>
<text text-anchor="start" x="531.862" y="-315.2" font-family="Helvetica,sans-Serif" font-size="11.00">!POSIXLY_CORRECT)</text>
</g>
<!-- END -->
<g id="node8" class="node"><title>END</title>
<ellipse fill="lightgray" stroke="black" cx="1035.98" cy="-181" rx="27" ry="18"/>
<text text-anchor="middle" x="1035.98" y="-178.2" font-family="Helvetica,sans-Serif" font-size="11.00">END</text>
</g>
<!-- NEXT&#45;&gt;END -->
<g id="edge4" class="edge"><title>NEXT&#45;&gt;END</title>
<path fill="none" stroke="black" d="M182.41,-201.872C187.765,-224.393 199.767,-263.152 222.862,-288 289.17,-359.342 320.464,-388 417.862,-388 417.862,-388 417.862,-388 901.421,-388 985.597,-388 1019.29,-265.649 1030.36,-209.076"/>
<polygon fill="black" stroke="black" points="1033.85,-209.478 1032.23,-199.008 1026.97,-208.202 1033.85,-209.478"/>
<text text-anchor="middle" x="696.362" y="-391.2" font-family="Helvetica,sans-Serif" font-size="11.00">i &gt;= argc</text>
</g>
<!-- ARG -->
<g id="node9" class="node"><title>ARG</title>
<ellipse fill="lightgray" stroke="black" cx="696.362" cy="-212" rx="27" ry="18"/>
<text text-anchor="middle" x="696.362" y="-209.2" font-family="Helvetica,sans-Serif" font-size="11.00">ARG</text>
</g>
<!-- NEXT&#45;&gt;ARG -->
<g id="edge6" class="edge"><title>NEXT&#45;&gt;ARG</title>
<path fill="none" stroke="black" d="M188.448,-200.802C196.155,-212.524 208.096,-227.383 222.862,-235 273.249,-260.992 293.229,-244.33 349.862,-247 482.267,-253.241 519.865,-269.448 647.862,-235 654.133,-233.312 660.572,-230.796 666.606,-228.04"/>
<polygon fill="black" stroke="black" points="668.234,-231.14 675.672,-223.595 665.152,-224.855 668.234,-231.14"/>
<text text-anchor="start" x="407.862" y="-281.2" font-family="Helvetica,sans-Serif" font-size="11.00">[^&#45;].*</text>
<text text-anchor="start" x="378.862" y="-270.2" font-family="Helvetica,sans-Serif" font-size="11.00" fill="blue">AND </text>
<text text-anchor="start" x="404.862" y="-270.2" font-family="Helvetica,sans-Serif" font-size="11.00">ARG_ONE</text>
<text text-anchor="start" x="349.862" y="-259.2" font-family="Helvetica,sans-Serif" font-size="11.00" fill="blue">AND </text>
<text text-anchor="start" x="375.862" y="-259.2" font-family="Helvetica,sans-Serif" font-size="11.00">!POSIXLY_CORRECT</text>
</g>
<!-- SHORT -->
<g id="node10" class="node"><title>SHORT</title>
<ellipse fill="lightgray" stroke="black" cx="418.862" cy="-167" rx="33.8507" ry="18"/>
<text text-anchor="middle" x="418.862" y="-164.2" font-family="Helvetica,sans-Serif" font-size="11.00">SHORT</text>
</g>
<!-- NEXT&#45;&gt;SHORT -->
<g id="edge7" class="edge"><title>NEXT&#45;&gt;SHORT</title>
<path fill="none" stroke="black" d="M204.841,-182.148C245.852,-179.232 325.9,-173.54 375.341,-170.024"/>
<polygon fill="black" stroke="black" points="375.674,-173.509 385.401,-169.308 375.178,-166.527 375.674,-173.509"/>
<text text-anchor="start" x="264.862" y="-195.2" font-family="Helvetica,sans-Serif" font-size="11.00">&#45;[^&#45;].*</text>
<text text-anchor="start" x="244.362" y="-184.2" font-family="Helvetica,sans-Serif" font-size="11.00" fill="blue">AND </text>
<text text-anchor="start" x="270.362" y="-184.2" font-family="Helvetica,sans-Serif" font-size="11.00">SHORT</text>
</g>
<!-- LONG -->
<g id="node11" class="node"><title>LONG</title>
<ellipse fill="lightgray" stroke="black" cx="418.862" cy="-91" rx="28.0277" ry="18"/>
<text text-anchor="middle" x="418.862" y="-88.2" font-family="Helvetica,sans-Serif" font-size="11.00">LONG</text>
</g>
<!-- NEXT&#45;&gt;LONG -->
<g id="edge8" class="edge"><title>NEXT&#45;&gt;LONG</title>
<path fill="none" stroke="black" d="M186.721,-166.891C194.07,-153.025 206.361,-134.174 222.862,-124 271.257,-94.1607 338.63,-89.1163 380.183,-89.2752"/>
<polygon fill="black" stroke="black" points="380.368,-92.7781 390.417,-89.422 380.469,-85.7788 380.368,-92.7781"/>
<text text-anchor="start" x="227.362" y="-138.2" font-family="Helvetica,sans-Serif" font-size="11.00">LONG </text>
<text text-anchor="start" x="261.362" y="-138.2" font-family="Helvetica,sans-Serif" font-size="11.00" fill="blue">AND </text>
<text text-anchor="start" x="287.362" y="-138.2" font-family="Helvetica,sans-Serif" font-size="11.00">(&#45;&#45;.* </text>
<text text-anchor="start" x="309.362" y="-138.2" font-family="Helvetica,sans-Serif" font-size="11.00" fill="blue">OR</text>
<text text-anchor="start" x="222.862" y="-127.2" font-family="Helvetica,sans-Serif" font-size="11.00">(&#45;[^&#45;].* </text>
<text text-anchor="start" x="254.862" y="-127.2" font-family="Helvetica,sans-Serif" font-size="11.00" fill="blue">AND </text>
<text text-anchor="start" x="280.862" y="-127.2" font-family="Helvetica,sans-Serif" font-size="11.00">!SHORT))</text>
</g>
<!-- ERR_NON_OPT&#45;&gt;END -->
<g id="edge20" class="edge"><title>ERR_NON_OPT&#45;&gt;END</title>
<path fill="none" stroke="black" d="M920.323,-285.924C934.552,-273.054 954.522,-254.954 971.981,-239 985.305,-226.824 1000.16,-213.153 1012.1,-202.142"/>
<polygon fill="black" stroke="black" points="1014.5,-204.687 1019.48,-195.333 1009.75,-199.543 1014.5,-204.687"/>
</g>
<!-- ERR_NULL_PTR&#45;&gt;END -->
<g id="edge21" class="edge"><title>ERR_NULL_PTR&#45;&gt;END</title>
<path fill="none" stroke="black" d="M930.93,-33.7366C944.587,-42.0387 960.327,-53.1676 971.981,-66 995.79,-92.2169 1013.93,-129.038 1024.49,-153.893"/>
<polygon fill="black" stroke="black" points="1021.38,-155.516 1028.42,-163.427 1027.85,-152.847 1021.38,-155.516"/>
</g>
<!-- ERR_INVALID_OPT -->
<g id="node5" class="node"><title>ERR_INVALID_OPT</title>
<ellipse fill="hotpink" stroke="black" cx="900.421" cy="-158" rx="69.5112" ry="18"/>
<text text-anchor="middle" x="900.421" y="-155.2" font-family="Helvetica,sans-Serif" font-size="11.00">ERR_INVALID_OPT</text>
</g>
<!-- ERR_INVALID_OPT&#45;&gt;END -->
<g id="edge22" class="edge"><title>ERR_INVALID_OPT&#45;&gt;END</title>
<path fill="none" stroke="black" d="M958.838,-167.888C972.647,-170.266 987,-172.737 999.474,-174.885"/>
<polygon fill="black" stroke="black" points="999.007,-178.357 1009.46,-176.604 1000.2,-171.458 999.007,-178.357"/>
</g>
<!-- ERR_MISSING_ARG -->
<g id="node6" class="node"><title>ERR_MISSING_ARG</title>
<ellipse fill="hotpink" stroke="black" cx="900.421" cy="-212" rx="71.6184" ry="18"/>
<text text-anchor="middle" x="900.421" y="-209.2" font-family="Helvetica,sans-Serif" font-size="11.00">ERR_MISSING_ARG</text>
</g>
<!-- ERR_MISSING_ARG&#45;&gt;END -->
<g id="edge23" class="edge"><title>ERR_MISSING_ARG&#45;&gt;END</title>
<path fill="none" stroke="black" d="M953.824,-199.837C969.467,-196.206 986.215,-192.319 1000.41,-189.024"/>
<polygon fill="black" stroke="black" points="1001.29,-192.412 1010.24,-186.742 999.709,-185.594 1001.29,-192.412"/>
</g>
<!-- ERR_AMBIGUOUS -->
<g id="node7" class="node"><title>ERR_AMBIGUOUS</title>
<ellipse fill="hotpink" stroke="black" cx="900.421" cy="-93" rx="66.9979" ry="18"/>
<text text-anchor="middle" x="900.421" y="-90.2" font-family="Helvetica,sans-Serif" font-size="11.00">ERR_AMBIGUOUS</text>
</g>
<!-- ERR_AMBIGUOUS&#45;&gt;END -->
<g id="edge24" class="edge"><title>ERR_AMBIGUOUS&#45;&gt;END</title>
<path fill="none" stroke="black" d="M933.373,-108.679C945.718,-115.128 959.78,-122.964 971.981,-131 985.399,-139.838 999.484,-150.833 1010.92,-160.26"/>
<polygon fill="black" stroke="black" points="1008.82,-163.066 1018.74,-166.794 1013.31,-157.695 1008.82,-163.066"/>
</g>
<!-- ARG&#45;&gt;NEXT -->
<g id="edge11" class="edge"><title>ARG&#45;&gt;NEXT</title>
<path fill="none" stroke="black" stroke-dasharray="5,2" d="M669.167,-213.322C582.893,-217.427 308.3,-228.438 222.862,-207 217.422,-205.635 211.904,-203.48 206.698,-201.025"/>
<polygon fill="black" stroke="black" points="208.239,-197.881 197.75,-196.387 205.017,-204.096 208.239,-197.881"/>
<text text-anchor="start" x="388.862" y="-234.2" font-family="Helvetica,sans-Serif" font-size="11.00">arg != NULL</text>
<text text-anchor="start" x="389.362" y="-223.2" font-family="Helvetica,sans-Serif" font-size="11.00" fill="blue">OR </text>
<text text-anchor="start" x="410.362" y="-223.2" font-family="Helvetica,sans-Serif" font-size="11.00">optional</text>
</g>
<!-- ARG&#45;&gt;ERR_MISSING_ARG -->
<g id="edge10" class="edge"><title>ARG&#45;&gt;ERR_MISSING_ARG</title>
<path fill="none" stroke="black" d="M723.364,-212C747.416,-212 784.466,-212 818.384,-212"/>
<polygon fill="black" stroke="black" points="818.792,-215.5 828.792,-212 818.792,-208.5 818.792,-215.5"/>
<text text-anchor="start" x="746.362" y="-226.2" font-family="Helvetica,sans-Serif" font-size="11.00">arg == NULL</text>
<text text-anchor="start" x="744.862" y="-215.2" font-family="Helvetica,sans-Serif" font-size="11.00" fill="blue">AND </text>
<text text-anchor="start" x="770.862" y="-215.2" font-family="Helvetica,sans-Serif" font-size="11.00">required</text>
</g>
<!-- SHORT&#45;&gt;NEXT -->
<g id="edge14" class="edge"><title>SHORT&#45;&gt;NEXT</title>
<path fill="none" stroke="black" stroke-dasharray="5,2" d="M387.833,-159.973C348.99,-152.151 279.585,-142.512 222.862,-158 216.824,-159.649 210.772,-162.36 205.171,-165.423"/>
<polygon fill="black" stroke="black" points="203.018,-162.634 196.252,-170.787 206.625,-168.633 203.018,-162.634"/>
<text text-anchor="middle" x="277.362" y="-161.2" font-family="Helvetica,sans-Serif" font-size="11.00">no argument</text>
</g>
<!-- SHORT&#45;&gt;ERR_INVALID_OPT -->
<g id="edge15" class="edge"><title>SHORT&#45;&gt;ERR_INVALID_OPT</title>
<path fill="none" stroke="black" d="M452.824,-166.381C527.957,-164.971 713.645,-161.487 820.43,-159.482"/>
<polygon fill="black" stroke="black" points="820.578,-162.98 830.511,-159.293 820.447,-155.982 820.578,-162.98"/>
<text text-anchor="middle" x="696.362" y="-166.2" font-family="Helvetica,sans-Serif" font-size="11.00">undefined</text>
</g>
<!-- SHORT&#45;&gt;ARG -->
<g id="edge13" class="edge"><title>SHORT&#45;&gt;ARG</title>
<path fill="none" stroke="black" d="M452.735,-168.747C497.413,-171.639 579.568,-178.797 647.862,-195 652.952,-196.207 658.251,-197.777 663.386,-199.473"/>
<polygon fill="black" stroke="black" points="662.365,-202.824 672.96,-202.831 664.682,-196.218 662.365,-202.824"/>
<text text-anchor="middle" x="576.862" y="-198.2" font-family="Helvetica,sans-Serif" font-size="11.00"> &#160;&#160;</text>
<text text-anchor="start" x="479.429" y="-192.246" font-family="Helvetica,sans-Serif" font-size="11.00">optional</text>
<text text-anchor="start" x="467.929" y="-181.246" font-family="Helvetica,sans-Serif" font-size="11.00" fill="blue">OR </text>
<text text-anchor="start" x="488.929" y="-181.246" font-family="Helvetica,sans-Serif" font-size="11.00">required</text>
</g>
<!-- SHORT&#45;&gt;LONG -->
<g id="edge12" class="edge"><title>SHORT&#45;&gt;LONG</title>
<path fill="none" stroke="black" d="M418.862,-148.855C418.862,-140.002 418.862,-129.15 418.862,-119.246"/>
<polygon fill="black" stroke="black" points="422.362,-119.011 418.862,-109.011 415.362,-119.011 422.362,-119.011"/>
<text text-anchor="start" x="376.362" y="-132.2" font-family="Helvetica,sans-Serif" font-size="11.00">LONG </text>
<text text-anchor="start" x="410.362" y="-132.2" font-family="Helvetica,sans-Serif" font-size="11.00" fill="blue">AND</text>
<text text-anchor="start" x="361.862" y="-121.2" font-family="Helvetica,sans-Serif" font-size="11.00">&#45;W </text>
<text text-anchor="start" x="380.862" y="-121.2" font-family="Helvetica,sans-Serif" font-size="11.00" fill="blue">AND </text>
<text text-anchor="start" x="406.862" y="-121.2" font-family="Helvetica,sans-Serif" font-size="11.00">GNU_W</text>
</g>
<!-- LONG&#45;&gt;NEXT -->
<g id="edge17" class="edge"><title>LONG&#45;&gt;NEXT</title>
<path fill="none" stroke="black" stroke-dasharray="5,2" d="M395.11,-80.8505C356.173,-65.174 275.843,-40.3941 222.862,-76 196.42,-93.7704 185.838,-130.488 181.608,-156.153"/>
<polygon fill="black" stroke="black" points="178.143,-155.659 180.197,-166.053 185.073,-156.647 178.143,-155.659"/>
<text text-anchor="middle" x="277.362" y="-79.2" font-family="Helvetica,sans-Serif" font-size="11.00">no argument</text>
</g>
<!-- LONG&#45;&gt;ERR_INVALID_OPT -->
<g id="edge18" class="edge"><title>LONG&#45;&gt;ERR_INVALID_OPT</title>
<path fill="none" stroke="black" d="M446.956,-93.2828C489.736,-97.0155 575.511,-105.019 647.862,-115 711.23,-123.742 783.134,-136.3 833.79,-145.589"/>
<polygon fill="black" stroke="black" points="833.161,-149.032 843.63,-147.402 834.429,-142.148 833.161,-149.032"/>
<text text-anchor="middle" x="696.362" y="-130.2" font-family="Helvetica,sans-Serif" font-size="11.00">undefined</text>
</g>
<!-- LONG&#45;&gt;ERR_AMBIGUOUS -->
<g id="edge19" class="edge"><title>LONG&#45;&gt;ERR_AMBIGUOUS</title>
<path fill="none" stroke="black" d="M446.14,-86.2348C499.194,-77.2138 622.904,-59.2121 726.862,-67 762.847,-69.6958 802.702,-75.5114 835.035,-80.9602"/>
<polygon fill="black" stroke="black" points="834.807,-84.472 845.254,-82.712 835.989,-77.5726 834.807,-84.472"/>
<text text-anchor="middle" x="696.362" y="-82.2" font-family="Helvetica,sans-Serif" font-size="11.00">same prefix</text>
<text text-anchor="middle" x="696.362" y="-70.2" font-family="Helvetica,sans-Serif" font-size="11.00">for &gt;1 option</text>
</g>
<!-- LONG&#45;&gt;ARG -->
<g id="edge16" class="edge"><title>LONG&#45;&gt;ARG</title>
<path fill="none" stroke="black" d="M445.322,-97.6235C501.092,-112.255 630.468,-146.91 647.862,-158 651.405,-160.258 664.351,-175.067 675.834,-188.606"/>
<polygon fill="black" stroke="black" points="673.222,-190.938 682.344,-196.326 678.573,-186.425 673.222,-190.938"/>
<text text-anchor="middle" x="576.862" y="-161.2" font-family="Helvetica,sans-Serif" font-size="11.00"> &#160;&#160;</text>
<text text-anchor="start" x="485.83" y="-137.686" font-family="Helvetica,sans-Serif" font-size="11.00">optional</text>
<text text-anchor="start" x="474.33" y="-126.686" font-family="Helvetica,sans-Serif" font-size="11.00" fill="blue">OR </text>
<text text-anchor="start" x="495.33" y="-126.686" font-family="Helvetica,sans-Serif" font-size="11.00">required</text>
</g>
</g>
</svg>
